<svg width="100" height="100" viewBox="0 0 100 100" fill="none" xmlns="http://www.w3.org/2000/svg">
<rect x="0.5" y="0.5" width="99" height="99" rx="4.5" fill="#F7E5C1" fill-opacity="0.5" stroke="#422A3C"/>
<path d="M56.3005 57.6063C55.8983 57.1549 55.2064 57.1169 54.755 57.5191C54.0955 58.1083 52.4418 58.7018 50.2339 58.7018C48.0247 58.7018 46.371 58.1069 45.7129 57.5191C45.2614 57.1169 44.5696 57.1549 44.1674 57.6063C43.7652 58.0563 43.8032 58.7482 44.2546 59.1518C45.4738 60.2416 47.7097 60.8913 50.2339 60.8913C52.7596 60.8913 54.9941 60.2416 56.2133 59.1518C56.6647 58.7482 56.7041 58.0577 56.3005 57.6063Z" fill="#BA7894"/>
<path d="M47.6449 47.9595C47.2371 47.5123 46.5452 47.4814 46.0995 47.8892C45.7831 48.1775 44.9042 48.4883 43.7215 48.4883C42.5388 48.4883 41.6599 48.1775 41.3435 47.8892C40.8963 47.4814 40.2045 47.5137 39.7981 47.9595C39.3902 48.4067 39.4226 49.0986 39.8684 49.505C40.6727 50.239 42.1127 50.6764 43.7215 50.6764C45.3302 50.6764 46.7717 50.239 47.5746 49.505C48.0204 49.0986 48.0527 48.4053 47.6449 47.9595Z" fill="#BA7894"/>
<path d="M48.6969 42.8281C47.6717 42.163 45.8126 41.7664 43.7215 41.7664C41.6304 41.7664 39.77 42.163 38.7462 42.8281C38.24 43.1572 38.0951 43.835 38.4242 44.3413C38.6337 44.6633 38.9853 44.8391 39.3425 44.8391C39.5464 44.8391 39.7531 44.7814 39.9373 44.6619C40.4815 44.3089 41.8625 43.9531 43.7215 43.9531C45.5806 43.9531 46.9615 44.3089 47.5058 44.6619C48.0134 44.9909 48.6912 44.8475 49.0189 44.3399C49.3479 43.835 49.2045 43.1572 48.6969 42.8281Z" fill="#BA7894"/>
<path d="M60.6697 47.9595C60.2619 47.5123 59.57 47.4814 59.1242 47.8892C58.8078 48.1775 57.9289 48.4883 56.7463 48.4883C55.5636 48.4883 54.6847 48.1775 54.3683 47.8892C53.9225 47.4814 53.2292 47.5137 52.8228 47.9595C52.415 48.4067 52.4474 49.0986 52.8932 49.505C53.6975 50.239 55.1375 50.6764 56.7463 50.6764C58.355 50.6764 59.795 50.239 60.5994 49.505C61.0466 49.0986 61.0775 48.4053 60.6697 47.9595Z" fill="#BA7894"/>
<path d="M61.723 42.8281C60.6979 42.163 58.8388 41.7664 56.7463 41.7664C54.6552 41.7664 52.7947 42.163 51.771 42.8281C51.2633 43.1572 51.1199 43.835 51.449 44.3413C51.778 44.8475 52.4558 44.9924 52.9635 44.6633C53.5077 44.3103 54.8886 43.9545 56.7477 43.9545C58.6068 43.9545 59.9877 44.3103 60.5319 44.6633C60.7161 44.7828 60.9229 44.8405 61.1268 44.8405C61.4854 44.8405 61.8355 44.6647 62.0451 44.3427C62.3741 43.835 62.2293 43.1572 61.723 42.8281Z" fill="#BA7894"/>
<path d="M71.4402 78.575C69.508 76.9325 66.8727 76.0283 64.0208 76.0283C61.9427 76.0283 60.2194 75.7718 58.9096 75.4691C57.4743 75.1373 56.5789 73.7901 56.5789 72.317C56.5789 70.8036 57.5439 69.4817 58.8837 68.778C62.4146 66.9233 65.2815 63.9708 67.0281 60.3768C67.908 58.5662 69.618 57.2413 71.289 56.1187C73.2032 54.8328 74.4664 52.6481 74.4664 50.18C74.4664 47.5361 72.9945 45.1849 70.8102 43.9481C69.7607 43.3539 68.8948 42.3495 68.8948 41.1435C68.8948 40.9037 68.9291 40.6651 68.9916 40.4336C70.1548 36.1236 70.0726 31.9229 69.7864 29.1144C69.6191 27.4663 69.3659 26.1106 69.1831 25.2641C69.013 24.478 68.9033 24.0533 68.8217 23.8072C68.8048 23.7425 68.7837 23.6792 68.7542 23.6173C67.542 21.0481 65.3862 18.8586 62.6272 17.2175C62.5709 17.1767 62.5119 17.143 62.45 17.1134C59.0595 15.1461 54.7831 14 50.2339 14C46.6522 14 43.1492 14.7088 40.1047 16.0489C39.552 16.2922 39.3003 16.9377 39.5436 17.4917C39.7869 18.0444 40.4323 18.2961 40.9864 18.0528C43.7553 16.8336 46.9531 16.1895 50.2339 16.1895C51.7163 16.1895 53.1643 16.3197 54.5519 16.5669C57.2764 17.0522 57.7111 20.2935 55.3175 21.6823C54.7944 21.9861 54.6172 22.6555 54.9209 23.1786C55.1234 23.5287 55.4905 23.7242 55.8687 23.7242C56.0558 23.7242 56.2442 23.6764 56.4172 23.5766C57.4587 22.9721 58.4151 22.3642 59.2944 21.7471C61.0498 20.5151 63.4792 20.2321 64.9226 21.8181C65.5017 22.4543 66.0012 23.134 66.4098 23.8517C66.4754 23.9669 66.4697 24.1082 66.3973 24.2192C66.3706 24.2586 66.3439 24.2994 66.3172 24.3387C63.9209 27.8291 58.8359 31.1731 51.4798 34.0967C51.4363 34.1136 51.3913 34.1305 51.3477 34.1488C51.1873 34.212 51.027 34.2753 50.8653 34.3372C45.8257 36.284 40.7168 37.6779 37.1656 38.5328C35.1007 39.03 33.0286 37.7312 32.8252 35.6171C32.8118 35.4777 32.7995 35.3388 32.7882 35.2005C32.6561 33.5797 33.8282 32.1642 35.3909 31.7145C36.0842 31.5134 36.8014 31.3067 37.4933 31.1464C37.5045 31.1436 37.5158 31.1408 37.527 31.138C42.0256 29.9469 46.4525 28.3381 51.882 25.9208C52.4347 25.6747 52.6822 25.0278 52.4361 24.4766C52.19 23.9253 51.5431 23.6764 50.9919 23.9225C45.6805 26.2878 41.3591 27.86 36.9842 29.0188C36.2403 29.1917 35.4992 29.4055 34.7834 29.6122C33.802 29.8963 32.8725 29.1112 33.0121 28.099C33.2247 26.5573 33.4901 25.3997 33.6371 24.8197C33.6949 24.5912 33.777 24.3703 33.8869 24.1618C34.649 22.7153 35.792 21.3955 37.2908 20.2311C37.7689 19.8613 37.8547 19.1736 37.4848 18.6955C37.1136 18.2188 36.4273 18.1316 35.9492 18.5014C34.0409 19.9836 32.615 21.7048 31.7108 23.6202C31.6883 23.6694 31.6686 23.7186 31.6531 23.7706C31.5505 24.1104 29.2056 32.051 31.4731 40.437C31.5357 40.6684 31.5702 40.9078 31.5702 41.1475C31.5702 42.3533 30.7036 43.3573 29.6543 43.9513C27.4719 45.1867 26 47.5383 26 50.1814C26 52.6494 27.2637 54.8339 29.1777 56.1199C30.8486 57.2425 32.5584 58.5675 33.4383 60.378C35.1851 63.9719 38.0524 66.9243 41.5826 68.7791C42.9225 69.483 43.8875 70.8051 43.8875 72.3186C43.8875 73.7917 42.9924 75.139 41.5572 75.4712C40.2472 75.7743 38.524 76.0311 36.4456 76.0311C33.5937 76.0311 30.9598 76.9353 29.0263 78.5778C27.0758 80.2344 26 82.483 26 84.9059C26 85.5106 26.4894 86 27.0941 86H73.3737C73.9784 86 74.4678 85.5106 74.4678 84.9059C74.4678 82.483 73.392 80.2344 71.4402 78.575ZM68.7148 54.8361C68.833 53.9783 68.8948 53.112 68.8948 52.2472V51.6596C68.8948 48.6245 72.2783 47.1463 72.2783 50.1814C72.2783 52.3936 70.816 54.2786 68.808 54.9146C68.7583 54.9303 68.7089 54.8879 68.7148 54.8361ZM28.1881 50.1814C28.1881 47.1463 31.5716 48.6245 31.5716 51.6596V52.2472C31.5716 53.1134 31.6334 53.9783 31.7516 54.8361C31.7595 54.8877 31.7081 54.9303 31.6584 54.9145C29.6504 54.2773 28.1881 52.3936 28.1881 50.1814ZM66.9219 27.1048C66.9472 27.0767 66.9725 27.0472 66.9978 27.0191C67.0667 26.9403 67.1342 26.8616 67.2003 26.7828C67.2157 26.764 67.2458 26.7717 67.25 26.7957C67.619 28.8732 67.9868 32.1022 67.6355 35.6745C67.4309 37.7554 66.6735 39.3117 64.6351 38.846C61.1249 38.0441 59.5885 32.9148 62.5546 30.8737C64.3142 29.6628 65.7713 28.4057 66.9219 27.1048ZM34.0241 55.1877C34.0227 55.1764 34.0198 55.1638 34.017 55.1525C33.8441 54.1948 33.7611 53.2203 33.7611 52.2472V44.143V41.5661C33.7611 41.5471 33.775 41.5305 33.7934 41.5259C35.488 41.1884 37.1727 40.7933 38.8489 40.3742C40.6152 39.9327 42.3716 39.4545 44.1167 38.9356C45.26 38.5953 46.3991 38.2381 47.5297 37.8598C47.5708 37.8462 47.6136 37.8388 47.6569 37.8388H52.0652C52.6042 37.8388 53.1399 37.9271 53.6525 38.094C57.7472 39.4272 61.5563 40.3871 64.157 40.9806C65.6372 41.3185 66.7081 42.6233 66.7081 44.1416V52.2458C66.7081 53.2175 66.6223 54.1948 66.4508 55.1525C66.4494 55.1638 66.4466 55.175 66.4452 55.1862C65.3258 61.3794 60.7316 66.3786 54.762 68.0872C54.7522 68.09 54.7423 68.0928 54.7325 68.0956C53.2714 68.5062 51.7527 68.72 50.2339 68.72C48.7194 68.72 47.1894 68.5161 45.7339 68.0956C45.7269 68.0942 45.7213 68.0914 45.7142 68.09C39.7419 66.3828 35.1448 61.3822 34.0241 55.1877ZM28.2922 83.8106C28.2922 83.8105 28.2922 83.8104 28.2922 83.8103C28.5524 82.459 29.2949 81.2201 30.4437 80.2428C31.9808 78.9364 34.1127 78.2178 36.4456 78.2178C42.0777 78.2178 45.3584 76.5092 45.4948 76.4361C45.852 76.2463 46.0756 75.875 46.0756 75.47C46.0756 75.47 46.0756 70.4427 46.0756 70.4441C46.0784 70.8617 50.0117 70.9095 50.2325 70.9095C52.3792 70.9095 54.3894 72.489 54.3894 74.6357V75.4714C54.3894 75.8764 54.613 76.2477 54.9702 76.4375C55.1066 76.5106 58.3873 78.2192 64.0194 78.2192C66.3523 78.2192 68.4842 78.9378 70.0213 80.2442C71.7004 81.6709 70.1285 83.8119 67.9252 83.8119H28.2935C28.2928 83.8119 28.2922 83.8113 28.2922 83.8106Z" fill="#BA7894"/>
</svg>
