<svg width="100" height="100" viewBox="0 0 100 100" fill="none" xmlns="http://www.w3.org/2000/svg">
<rect x="0.5" y="0.5" width="99" height="99" rx="4.5" fill="#F7E5C1" fill-opacity="0.5" stroke="#422A3C"/>
<path d="M30.0886 42.896C30.8966 42.896 31.5516 42.241 31.5516 41.433C31.5516 40.625 30.8966 39.97 30.0886 39.97C29.2806 39.97 28.6256 40.625 28.6256 41.433C28.6256 42.241 29.2806 42.896 30.0886 42.896Z" fill="#BA7894"/>
<path d="M79.5702 39.8991C78.6494 38.8409 77.2876 38.2352 75.8347 38.2352H64.0006V35.7299C64.0006 32.0608 61.0154 29.0756 57.3463 29.0756H56.1999V28.8891C56.1999 26.2667 54.1211 24.1228 51.5247 24.0144V21.5192C52.6118 21.2648 53.5558 20.899 54.3495 20.4176C55.8241 19.5228 56.463 18.4414 56.7392 17.6926C57.355 16.02 56.7074 14.103 55.2646 13.3296C54.854 13.1113 54.4189 13 53.9693 13C52.9906 13 52.0712 13.5436 51.516 14.4326C51.2356 14.6162 50.1629 15.1699 47.4292 15.1699H40.6188C37.1593 15.1699 35.0097 17.535 35.0097 21.3443C35.0097 23.2106 36.3541 24.73 38.0079 24.73C39.481 24.73 40.7098 23.5243 40.9599 21.9413H44.2314V24.0144C41.635 24.1228 39.5562 26.2667 39.5562 28.8891V29.0756H38.4084C34.7393 29.0756 31.7541 32.0608 31.7541 35.7299V35.8282H27.4663C25.5638 35.8282 24.0155 37.3765 24.0155 39.279V45.8003C22.9761 46.6893 22.3154 48.0078 22.3154 49.4809V51.6306C20.3436 53.0386 19.0006 55.288 18.8285 57.8685C18.7548 59.0005 18.7028 60.2003 18.6753 61.432C18.6623 62.0551 19.1553 62.5712 19.7783 62.5857C20.4 62.6001 20.9175 62.1057 20.9305 61.4826C20.9565 60.2842 21.0071 59.119 21.0794 58.0174C21.2298 55.7391 22.6349 53.8149 24.5865 52.9042C24.601 52.8984 24.614 52.8912 24.627 52.8854C25.4077 52.5312 26.2722 52.3404 27.1294 52.3404H33.045C33.9052 52.3404 34.7653 52.5312 35.5474 52.8854C35.5619 52.8912 35.5749 52.8984 35.5879 52.9042C37.5612 53.8193 38.9505 55.8446 39.0951 58.0174C39.2093 59.7305 39.2656 61.4913 39.2656 63.2478C39.2656 64.079 39.2425 64.9088 39.2252 65.7386C39.2237 65.7675 39.2237 65.7964 39.2223 65.8268C39.2121 66.1203 38.3954 66.9298 38.2248 67.2334C37.9443 67.7322 37.7173 68.2569 37.5497 68.8034C37.168 70.0437 37.087 71.3521 37.0639 72.6416C37.0307 74.573 37.2229 76.513 37.6494 78.3981C37.6509 78.4068 37.6523 78.414 37.6552 78.4227C36.9425 80.383 35.1094 81.6797 33.0074 81.6797H27.167C24.8439 81.6797 22.8084 80.023 22.3241 77.7404C21.5565 74.119 21.0968 70.1478 20.9565 65.9352C20.9363 65.3121 20.4115 64.8235 19.7913 64.8452C19.1683 64.8654 18.6796 65.3873 18.7013 66.0104C18.8459 70.3546 19.323 74.4587 20.1166 78.2088C20.8192 81.528 23.7857 83.9379 27.167 83.9379H33.0103C35.2077 83.9379 37.2027 82.9649 38.537 81.3617C39.2497 83.2598 40.2096 85.0206 41.3965 86.5762C41.6105 86.8552 41.9415 87.02 42.2928 87.02H63.5857C63.937 87.02 64.2695 86.8552 64.482 86.5762C64.8261 86.1266 65.1499 85.6582 65.455 85.1768H75.1567C75.7798 85.1768 76.2857 84.6722 76.2857 84.0477V74.732L78.9645 55.3806C79.0498 54.7633 78.619 54.1937 78.0017 54.1084C77.383 54.0231 76.8148 54.4539 76.7295 55.0712L74.5871 70.5512H68.6889C68.6122 69.8096 68.4503 69.0781 68.1887 68.3798C67.3849 66.2374 65.7398 64.5474 63.6768 63.6656L63.6363 63.3692L60.826 43.0665C60.8159 42.9943 60.8101 42.9205 60.8072 42.8483C60.8072 42.8439 60.8072 42.841 60.8072 42.8367C60.787 42.1066 61.1787 41.4489 61.7483 41.0166C62.2066 40.6697 62.808 40.4933 63.379 40.4933H75.8361C76.6356 40.4933 77.3772 40.8171 77.8702 41.3824C78.2894 41.8638 78.4744 42.4623 78.3906 43.0651L77.3541 50.555C77.2688 51.1723 77.6996 51.7419 78.3169 51.8272C78.9342 51.9125 79.5037 51.4817 79.589 50.8644L80.6256 43.373C80.799 42.1139 80.4246 40.8793 79.5702 39.8991ZM40.6173 19.6832C40.0969 19.6832 39.4507 19.7425 39.0763 20.1545C38.7828 20.4769 38.7481 20.9294 38.7481 21.3443C38.7481 22.0093 38.3578 22.4733 38.0065 22.4733C37.6552 22.4733 37.2649 22.0093 37.2649 21.3443C37.2649 17.9354 39.3654 17.428 40.6173 17.428H47.4278C48.4802 17.428 49.5731 17.3615 50.6183 17.136C51.5189 16.9408 52.5265 16.6517 53.1887 15.9751C53.4301 15.7279 53.5472 15.2595 53.9679 15.2595C54.043 15.2595 54.1168 15.2798 54.1934 15.3203C54.5924 15.5342 54.8584 16.2614 54.617 16.9148C54.4232 17.441 53.5833 18.9286 50.2366 19.4779C50.228 19.4794 50.2207 19.4794 50.2121 19.4808C49.2926 19.6312 48.3587 19.6847 47.4278 19.6847H45.359L40.6173 19.6832ZM49.2652 21.8661V24.0071H46.4881V21.9399C46.491 21.989 49.2652 21.8893 49.2652 21.8661ZM44.4353 26.2638H45.359H50.3942H51.318C52.7636 26.2638 53.9404 27.4406 53.9404 28.8862V29.0727H41.8129V28.8862C41.8129 27.4406 42.9896 26.2638 44.4353 26.2638ZM26.2736 39.2833C26.2736 39.2818 26.2736 39.279 26.2736 39.2775C26.2736 38.6197 26.8085 38.0849 27.4663 38.0849H32.7096C32.7357 38.0849 32.7602 38.0877 32.7848 38.0892C32.7906 38.0892 32.7949 38.0906 32.7993 38.0906C34.122 38.1875 33.9023 39.7271 33.9023 40.6523C33.9023 41.7756 33.9023 42.8988 33.9023 44.0221C33.9023 44.2549 33.9023 44.4862 33.9023 44.7189C33.6117 44.6654 33.3154 44.638 33.019 44.638C33.019 44.638 27.1584 44.638 27.1555 44.638C26.8822 44.638 26.5627 44.7175 26.2751 44.7088C26.1898 42.9119 26.2736 41.0846 26.2736 39.2833ZM35.6038 50.4842C35.6038 50.156 33.3631 50.0808 33.045 50.0808H27.1323C26.2664 50.0808 25.3976 50.2182 24.5735 50.4842C24.5735 50.4842 24.5735 49.4794 24.5735 49.478C24.5735 48.0829 25.7619 46.8932 27.1584 46.8932H33.0219C33.8705 46.8932 34.6902 47.3326 35.1643 48.0352C35.6587 48.7682 35.6038 49.6413 35.6038 50.4842ZM67.1955 81.8518C67.2129 81.7954 67.2259 81.752 67.236 81.7246C67.6278 80.6172 67.9776 79.4896 68.2335 78.3418C68.6383 76.5289 68.8363 74.6626 68.8146 72.8049H74.0291V74.651V82.9158C74.0291 82.9158 66.691 82.9158 66.6881 82.9158C66.8818 82.9172 67.0958 82.1814 67.1955 81.8518ZM65.9841 68.9595H60.6554C60.0323 68.9595 59.5264 69.464 59.5264 70.0886C59.5264 70.7131 60.0309 71.2176 60.6554 71.2176H66.4814C66.4857 71.2653 66.4886 71.3145 66.4929 71.3622C66.8442 76.0374 65.76 80.9121 63.0162 84.7619H42.8638C41.4804 82.8218 40.4785 80.5449 39.8988 78.0873C39.3712 75.848 39.2064 73.5104 39.3972 71.2176H56.1407C56.7637 71.2176 57.2697 70.7131 57.2697 70.0886C57.2697 69.464 56.7652 68.9595 56.1407 68.9595H39.8916C40.1836 68.267 40.6057 67.6324 41.1435 67.0831C42.2697 65.9323 43.8787 65.2471 45.5079 65.2471H60.3706C60.8867 65.2471 61.3956 65.3136 61.8857 65.4423C63.6927 65.9121 65.2439 67.2045 65.9841 68.9595ZM61.7425 38.5026C61.7425 38.4954 60.3966 39.2009 60.268 39.3021C58.0532 41.0672 58.6243 43.6462 58.9611 46.0822L61.3088 63.0425C61.3016 63.041 61.2944 63.041 61.2857 63.041C61.1571 63.0266 61.0269 63.0165 60.8968 63.0078C60.8679 63.0063 60.8405 63.0034 60.8115 63.002C60.6655 62.9948 60.5181 62.989 60.3692 62.989H45.5079C44.7923 62.989 44.0782 63.0815 43.3857 63.2622C43.0489 63.3504 42.7164 63.4588 42.394 63.586C42.2755 63.6338 41.5223 63.8954 41.5208 63.9937C41.5237 63.7422 41.5237 63.4935 41.5237 63.2449C41.5237 61.4378 41.4645 59.6279 41.3474 57.8656C41.2621 56.5804 40.8689 55.3126 40.2198 54.2009C39.9249 53.6964 39.5765 53.2222 39.1832 52.79C38.9794 52.5659 38.764 52.3534 38.537 52.1539C38.4517 52.0787 37.8605 51.6971 37.8605 51.6175V49.4765C37.8605 48.0844 37.2316 46.7038 36.1604 45.793V39.2761C36.1604 39.1951 36.1561 39.1156 36.1503 39.0361C36.1488 39.0202 36.1474 39.0028 36.1459 38.9869C36.0361 37.6699 35.1846 36.5611 34.0107 36.0812V35.727C34.0107 33.3027 35.984 31.3293 38.4084 31.3293H40.6838H55.068H57.3434C59.7678 31.3293 61.7411 33.3027 61.7411 35.727C61.7425 35.7284 61.7425 38.5026 61.7425 38.5026Z" fill="#BA7894"/>
</svg>
