<svg width="100" height="100" viewBox="0 0 100 100" fill="none" xmlns="http://www.w3.org/2000/svg">
<rect x="0.5" y="0.5" width="99" height="99" rx="4.5" fill="#F7E5C1" fill-opacity="0.5" stroke="#422A3C"/>
<path d="M28.168 69.059C27.9721 69.5568 27.4967 69.8596 26.9928 69.8596C26.838 69.8596 26.6801 69.8311 26.5269 69.7692C21.6919 67.8461 18.7587 65.3743 18.0415 62.6235C17.8646 61.9465 18.269 61.2521 18.945 61.0761C19.6211 60.9001 20.3113 61.3044 20.4867 61.983C20.9842 63.8919 23.461 65.8214 27.4604 67.4132C28.108 67.6701 28.4255 68.4073 28.168 69.059ZM32.4628 55.7806C32.7013 55.9836 32.9919 56.0835 33.281 56.0835C33.638 56.0835 33.9934 55.9312 34.2429 55.6379C34.6962 55.1052 34.6315 54.3046 34.1008 53.8495C33.4737 53.3136 32.8608 52.746 32.278 52.161C27.8644 47.7308 25.1217 42.3463 24.6241 37.4878C24.4028 35.3267 26.1716 33.556 28.3323 33.7808C29.5826 33.9109 30.8676 34.1914 32.1621 34.6125C32.2845 34.6524 32.4005 34.7072 32.5222 34.7491C32.6432 34.7909 32.7696 34.8197 32.8898 34.8635C36.3676 36.1323 39.8811 38.3951 42.9367 41.4622C43.7186 42.247 44.4641 43.081 45.1512 43.9372C45.5888 44.4826 46.3849 44.5682 46.9282 44.129C47.4716 43.6898 47.5569 42.8907 47.1194 42.3453C46.3754 41.4178 45.5698 40.5173 44.7232 39.6675C42.278 37.2132 39.5459 35.23 36.7373 33.799C35.2005 33.0161 34.0351 31.3397 34.3143 29.6377C34.6341 27.6878 36.6584 26.8554 38.3632 27.8544C38.6687 28.0334 38.9727 28.2282 39.2743 28.4383C40.7189 29.445 41.1545 31.3048 40.8853 33.0448C40.8562 33.2333 40.8287 33.4225 40.8028 33.6126C40.708 34.307 41.1913 34.9459 41.8832 35.0411C42.575 35.1362 43.2116 34.6511 43.3063 33.9566C43.9398 29.3238 45.5949 25.2451 47.9366 22.3397C49.3057 20.6412 51.8198 20.6412 53.189 22.3396C55.5307 25.2444 57.1857 29.3219 57.8192 33.9534C57.914 34.6479 58.5505 35.133 59.2424 35.0379C59.9342 34.9428 60.4175 34.3022 60.3228 33.6094C60.2971 33.4207 60.2697 33.2329 60.2408 33.0458C59.9717 31.3052 60.407 29.4446 61.8523 28.4379C62.153 28.2284 62.4561 28.0342 62.7607 27.8557C64.4661 26.8561 66.491 27.6891 66.811 29.6398C67.0901 31.3406 65.9261 33.0162 64.3905 33.7988C61.5811 35.2304 58.8481 37.2137 56.4023 39.6675C55.5557 40.5173 54.7501 41.4178 54.0062 42.3453C53.5686 42.8907 53.6539 43.6898 54.1973 44.129C54.7407 44.5682 55.5367 44.4826 55.9743 43.9372C56.6614 43.081 57.4069 42.2486 58.1888 41.4622C61.244 38.3956 64.7554 36.1314 68.2327 34.864C68.3539 34.8198 68.4819 34.7909 68.6039 34.7489C68.7256 34.707 68.841 34.6524 68.9635 34.6126C70.2579 34.1922 71.5428 33.9117 72.7931 33.7814C74.9538 33.5563 76.7227 35.3268 76.5015 37.4879C76.004 42.3474 73.2614 47.7319 68.8476 52.161C68.2647 52.746 67.6518 53.3136 67.0248 53.8495C66.494 54.303 66.4293 55.1036 66.881 55.6379C67.3328 56.1707 68.1304 56.2357 68.6628 55.7822C69.3404 55.2035 70.0038 54.5884 70.634 53.9557C77.0533 47.514 80.2329 39.0872 78.7387 32.4901C78.6312 32.0144 78.2616 31.6434 77.7862 31.534C77.1611 31.3912 76.5195 31.2909 75.8647 31.2317C72.6252 30.9392 69.5969 28.5468 68.1946 25.612C68.0145 25.2349 67.8165 24.874 67.6013 24.531C67.3423 24.1188 66.87 23.892 66.3866 23.9475C66.0134 23.9909 65.6382 24.0553 65.2623 24.1402C61.8262 24.9159 57.5751 23.9153 55.4342 21.1179C54.2034 19.5096 52.7898 18.1777 51.2341 17.195C50.8234 16.935 50.299 16.935 49.8883 17.195C48.3325 18.1777 46.919 19.5096 45.6881 21.1179C43.5473 23.9153 39.2965 24.9151 35.8603 24.14C35.4844 24.0552 35.1092 23.9909 34.7357 23.9475C34.2524 23.892 33.7817 24.1188 33.5226 24.531C33.3079 24.8735 33.1105 25.234 32.9308 25.6106C31.5297 28.5463 28.5013 30.9391 25.2616 31.2318C24.607 31.291 23.9657 31.3913 23.3409 31.534C22.867 31.6418 22.4974 32.0144 22.3884 32.4901C20.8926 39.0872 24.0738 47.5124 30.4931 53.9557C31.1217 54.5868 31.7852 55.2003 32.4628 55.7806ZM31.8641 65.6993C32.0947 65.0382 31.7472 64.3152 31.0886 64.0837C27.2756 62.7456 24.9994 61.0539 24.9994 59.5604C24.9994 58.5948 25.9914 57.504 27.7921 56.4877C28.4002 56.1453 28.6166 55.3716 28.2738 54.7612C27.9326 54.1508 27.1618 53.9336 26.5537 54.2776C23.8448 55.806 22.4722 57.5833 22.4722 59.562C22.4722 62.3017 25.1637 64.6926 30.2546 66.481C30.392 66.5301 30.5326 66.5523 30.6716 66.5523C31.1944 66.5507 31.6825 66.2225 31.8641 65.6993ZM69.7874 64.1725C69.1271 64.3977 68.7733 65.1175 68.9976 65.7818C69.1761 66.3097 69.6673 66.6427 70.1933 66.6427C70.3276 66.6427 70.465 66.6205 70.5993 66.5745C75.8702 64.7782 78.6581 62.3524 78.6581 59.5604C78.6581 57.6531 77.3787 55.9297 74.8561 54.4377C74.2543 54.0826 73.4804 54.2824 73.1265 54.8864C72.7727 55.4905 72.9717 56.2674 73.5735 56.6225C75.2226 57.5976 76.1308 58.6408 76.1308 59.5588C76.1292 61.0713 73.6999 62.8391 69.7874 64.1725ZM63.0964 73.4428C63.0964 74.727 62.0555 75.7734 60.7745 75.7734C60.0764 75.7734 59.5109 76.341 59.5109 77.0418C59.5109 77.7426 60.0764 78.3102 60.7745 78.3102C63.4487 78.3102 65.6237 76.127 65.6237 73.4428C65.6237 72.742 65.0582 72.1744 64.3601 72.1744C63.6619 72.1744 63.0964 72.742 63.0964 73.4428ZM82.0541 61.0761C81.3797 60.9001 80.6878 61.3044 80.5125 61.983C80.0149 63.8935 77.5398 65.8214 73.5404 67.4132C72.8912 67.6717 72.5737 68.4089 72.8312 69.0605C73.027 69.5584 73.5041 69.8612 74.0063 69.8612C74.1611 69.8612 74.3191 69.8327 74.4723 69.7708C79.3073 67.8461 82.2421 65.3743 82.9592 62.6235C83.1345 61.9465 82.7286 61.2537 82.0541 61.0761ZM59.5993 61.6263C59.5993 62.3175 59.0402 62.8788 58.3515 62.8788C57.6533 62.8788 57.0879 63.4464 57.0879 64.1472C57.0879 64.8479 57.6533 65.4155 58.3515 65.4155C60.4333 65.4155 62.1266 63.7159 62.1266 61.6263C62.1266 60.9255 61.5611 60.3579 60.863 60.3579C60.1648 60.3579 59.5993 60.9271 59.5993 61.6263ZM55.9885 53.5261H56.3186C57.0168 53.5261 57.5823 52.9585 57.5823 52.2577C57.5823 51.5569 57.0168 50.9893 56.3186 50.9893H55.9885C55.2903 50.9893 54.7249 51.5569 54.7249 52.2577C54.7249 52.9585 55.2919 53.5261 55.9885 53.5261ZM69.0418 68.068C70.1996 69.6805 70.8125 71.5814 70.8125 73.5649C70.8125 78.7668 66.5967 83 61.4126 83H39.7176C34.5351 83 30.3178 78.7684 30.3178 73.5664C30.3178 71.2016 31.212 68.9745 32.7261 67.2772C33.9176 65.9415 34.5367 64.0313 34.5367 62.2414C34.5367 60.1915 35.3475 58.3279 36.664 56.9568C37.9026 55.6668 38.5803 53.5022 38.5803 51.7139C38.5803 48.4716 41.2087 45.8334 44.4389 45.8334H56.6914C59.9216 45.8334 62.5499 48.4716 62.5499 51.7139C62.5499 54.9562 59.9216 57.5944 56.6914 57.5944H44.4389C43.6829 57.5944 42.9605 57.4494 42.2955 57.1877C42.2423 57.1667 42.1852 57.1584 42.128 57.1584C39.3354 57.1584 37.064 59.4383 37.064 62.2414C37.064 63.2894 37.3815 64.2661 37.9264 65.0762C37.9691 65.1286 38.0086 65.1841 38.0433 65.2427C38.9658 66.5032 40.4537 67.3244 42.128 67.3244H59.0023C61.7949 67.3244 64.0663 65.0445 64.0663 62.2414C64.0663 60.7321 63.3966 59.3067 62.2277 58.3317C61.6906 57.8845 61.618 57.0839 62.0634 56.5448C62.5089 56.0058 63.3065 55.9328 63.8436 56.3799C65.5905 57.8386 66.5936 59.9742 66.5936 62.2398C66.5936 66.4413 63.1881 69.8596 59.0023 69.8596H42.128C41.295 69.8596 40.4928 69.7242 39.7423 69.4741C37.61 68.7637 35.003 68.0815 33.8409 70.0052C33.2042 71.0591 32.845 72.2845 32.845 73.5649C32.845 77.3684 35.9283 80.4632 39.7176 80.4632H61.4126C65.202 80.4632 68.2852 77.3684 68.2852 73.5664C68.2852 72.1189 67.8382 70.7316 66.9916 69.5536C66.5841 68.986 66.712 68.1933 67.2775 67.7826C67.843 67.372 68.6327 67.5004 69.0418 68.068ZM41.1076 51.7139C41.1076 53.5578 42.6019 55.0577 44.4389 55.0577H56.6914C58.5284 55.0577 60.0227 53.5578 60.0227 51.7139C60.0227 49.87 58.5284 48.3701 56.6914 48.3701H44.4389C42.6019 48.3701 41.1076 49.87 41.1076 51.7139Z" fill="#BA7894"/>
</svg>
